 <svg  version="1.0" xmlns="http://www.w3.org/2000/svg"  width="300.000000pt" height="249.000000pt" viewBox="0 0 300.000000 249.000000"  preserveAspectRatio="xMidYMid meet">  <g transform="translate(0.000000,249.000000) scale(0.100000,-0.100000)" fill="#7456ae" stroke="none"> <path d="M1594 1897 c-3 -9 -4 -24 -2 -34 3 -16 14 -18 106 -16 l103 1 -6 -71 c-16 -185 -43 -241 -137 -281 -132 -56 -150 -68 -182 -125 -39 -71 -48 -188 -21 -287 9 -35 18 -64 19 -64 1 0 23 19 47 43 33 31 67 51 125 71 43 16 98 42 122 58 45 31 102 109 102 139 0 29 -39 69 -68 69 -74 0 -215 -106 -241 -180 -13 -39 -1 -32 59 33 48 53 132 107 167 107 64 0 35 -89 -46 -143 -20 -13 -65 -34 -100 -46 -34 -12 -79 -32 -98 -46 -20 -13 -41 -21 -48 -18 -34 12 -29 166 6 232 24 43 76 91 101 91 9 0 20 5 23 10 3 6 15 10 27 10 16 0 10 -9 -30 -45 -60 -54 -91 -100 -96 -146 -7 -59 6 -62 28 -6 32 77 67 118 137 160 110 65 190 62 266 -8 45 -42 47 -46 28 -56 -36 -22 -92 -86 -116 -135 -20 -40 -24 -64 -24 -134 1 -72 5 -93 27 -135 56 -108 146 -167 265 -173 134 -7 247 60 304 183 108 228 -105 493 -351 436 l-45 -10 -68 67 c-38 37 -79 88 -92 113 -27 52 -45 145 -45 230 0 48 3 57 20 62 19 5 28 31 13 40 -5 3 -68 8 -140 12 -116 7 -133 6 -139 -8z m251 -337 c26 -57 18 -67 -56 -69 l-63 -2 25 28 c15 15 32 42 40 59 16 39 31 35 54 -16z m423 -249 c109 -56 168 -192 130 -302 -19 -58 -67 -117 -116 -146 -41 -24 -57 -28 -127 -28 -88 0 -118 12 -173 66 -102 101 -106 252 -8 354 23 25 47 45 53 45 26 0 99 -166 88 -199 -9 -31 19 -71 50 -71 34 0 61 41 45 69 -6 11 -19 25 -29 31 -11 5 -25 27 -32 47 -6 21 -23 61 -38 88 -14 28 -27 53 -29 57 -11 24 134 16 186 -11z"/> <path d="M880 1733 c0 -10 13 -41 29 -68 30 -53 78 -92 144 -120 48 -20 191 -32 201 -17 19 32 -112 119 -204 136 -33 7 -34 6 -15 -9 11 -8 28 -22 38 -30 9 -8 22 -15 28 -15 17 0 69 -30 69 -40 0 -34 -154 23 -202 75 -42 45 -37 65 16 65 28 0 46 -5 49 -13 3 -9 30 -16 74 -20 151 -14 230 -91 219 -211 -6 -64 -26 -138 -35 -133 -89 49 -130 62 -201 62 -98 -1 -163 -29 -228 -99 -56 -63 -82 -129 -82 -213 0 -132 78 -248 197 -293 83 -31 188 -25 262 15 108 59 166 159 165 286 0 54 -6 79 -32 131 l-31 64 20 55 c12 30 23 86 26 126 5 64 3 78 -21 127 -51 104 -178 156 -380 156 -94 0 -106 -2 -106 -17z m314 -417 c17 -8 40 -20 50 -28 19 -15 18 -16 -9 -53 -40 -52 -113 -105 -144 -105 -51 0 -69 -50 -31 -85 23 -21 66 -14 74 13 3 10 19 25 34 34 15 9 52 42 81 72 29 31 56 54 60 51 5 -2 16 -32 25 -65 35 -125 -22 -244 -144 -299 -90 -41 -215 -17 -282 55 -91 98 -91 260 2 352 76 77 188 99 284 58z"/> <path d="M832 443 l3 -118 29 -3 c27 -3 28 -2 24 36 -3 40 -3 40 37 45 72 10 100 83 50 132 -20 21 -34 25 -85 25 l-61 0 3 -117z m114 52 c9 -21 -15 -47 -40 -43 -18 3 -24 21 -17 53 3 12 52 3 57 -10z"/> <path d="M1066 552 c-3 -5 -20 -51 -39 -103 -19 -52 -38 -102 -42 -111 -6 -15 -2 -18 24 -18 24 0 34 6 41 25 8 21 16 25 50 25 34 0 41 -4 46 -25 5 -19 13 -25 35 -25 16 0 29 3 29 8 0 4 -19 58 -41 120 -40 106 -44 112 -70 112 -15 0 -30 -4 -33 -8z m49 -109 c5 -20 3 -23 -18 -23 -24 0 -25 2 -14 30 12 31 20 29 32 -7z"/> <path d="M1230 441 l0 -121 30 0 30 0 0 73 0 72 46 -73 c36 -56 51 -72 66 -70 19 3 21 10 20 118 l-1 115 -25 3 c-24 3 -25 1 -28 -60 l-3 -63 -35 60 c-31 51 -41 60 -68 63 l-32 3 0 -120z"/> <path d="M1470 439 c0 -121 0 -121 23 -115 12 3 46 6 74 6 68 0 112 35 120 96 11 87 -42 134 -152 134 l-65 0 0 -121z m138 55 c15 -10 22 -25 22 -46 0 -43 -25 -68 -69 -68 l-36 0 0 65 0 65 30 0 c17 0 41 -7 53 -16z"/> <path d="M1785 543 c-23 -59 -75 -207 -75 -214 0 -5 11 -9 25 -9 17 0 29 8 37 25 9 20 18 25 50 25 32 0 40 -4 48 -25 7 -19 17 -25 41 -25 26 0 30 3 24 18 -4 9 -25 62 -45 117 -35 94 -39 100 -67 103 -22 2 -32 -2 -38 -15z m54 -110 c1 -7 -8 -13 -19 -13 -23 0 -23 0 -9 37 10 26 12 27 19 8 5 -11 9 -26 9 -32z"/> <path d="M1983 540 c-36 -22 -60 -82 -49 -124 19 -75 108 -116 174 -82 35 18 65 67 60 98 -3 18 -11 20 -63 21 -59 1 -60 1 -63 -27 -3 -27 -2 -28 27 -24 38 6 41 -9 4 -23 -60 -22 -110 64 -64 110 25 25 49 27 77 7 17 -12 23 -12 43 3 l23 18 -27 21 c-35 28 -99 29 -142 2z"/> <path d="M2224 526 c-29 -29 -34 -41 -34 -83 0 -55 17 -86 60 -108 62 -32 139 -4 166 61 35 83 -22 164 -114 164 -37 0 -50 -6 -78 -34z m126 -36 c42 -42 13 -112 -47 -112 -30 0 -63 33 -63 65 0 28 38 67 67 67 13 0 32 -9 43 -20z"/> </g> </svg> 